<svg width="182" height="55" viewBox="0 0 182 55" fill="none" xmlns="http://www.w3.org/2000/svg">
<g filter="url(#filter0_d_1047_3943)">
<path d="M19.7384 35.5986C19.2823 33.8445 18.2762 32.4547 17.0844 31.712C16.9762 31.6466 16.7929 31.6699 16.7811 31.7867C16.5743 33.305 15.9137 34.7134 16.3698 36.4699C16.8258 38.224 17.8319 39.6138 19.0238 40.3565C19.1319 40.4219 19.2729 40.3892 19.327 40.2818C19.9993 39.0532 20.1944 37.3411 19.7384 35.5986ZM14.9617 37.8363C13.2292 37.2991 11.7764 37.89 10.2391 38.0302C10.1192 38.0418 10.0863 38.224 10.1427 38.3315C10.8361 39.5484 12.1901 40.6018 13.9344 41.1414C15.6669 41.6786 17.4017 41.5618 18.6571 40.9475C18.7652 40.8938 18.8099 40.7536 18.7534 40.6462C18.06 39.441 16.6942 38.3758 14.9617 37.8363ZM13.8146 35.4048C13.9016 35.4912 14.0308 35.4795 14.1178 35.3931C14.9735 34.3817 15.493 32.8308 15.3966 31.1211C15.3096 29.4089 14.6373 27.9141 13.6735 26.9985C13.5865 26.9121 13.4126 26.9027 13.3703 27.0102C12.8837 28.3883 11.9951 29.5725 12.0915 31.2822C12.1785 32.9943 12.8484 34.4892 13.8146 35.4048ZM13.3468 35.8883C13.4667 35.8556 13.5301 35.7365 13.4878 35.629C13.0765 34.37 12.0139 33.1204 10.5095 32.2913C8.99327 31.4621 7.53111 31.7424 6.07834 31.5695C5.95845 31.5579 5.89498 31.7214 5.93729 31.8288C6.34867 33.0878 7.41119 34.3374 8.91565 35.1666C10.4342 35.9864 12.0586 36.2106 13.3468 35.8883ZM10.0652 29.5817C11.2123 28.9791 12.2326 27.7739 12.7732 26.1902C13.3139 24.6182 13.2598 23.0252 12.7309 21.8644C12.6886 21.7569 12.5358 21.6822 12.4606 21.7686C11.5297 22.8337 10.2932 23.5764 9.75254 25.1601C9.21187 26.7321 9.26594 28.3251 9.79485 29.4859C9.83716 29.591 9.9688 29.6354 10.0652 29.5817ZM9.42579 29.5817C9.51276 28.3017 9.01441 26.7928 7.96363 25.5012C6.90111 24.2095 5.48361 23.9292 4.23773 23.2519C4.14135 23.1981 4.02146 23.3173 4.00971 23.434C3.92273 24.714 4.42108 26.2229 5.47187 27.5146C6.53438 28.8063 7.91897 29.5911 9.19776 29.7639C9.31765 29.7756 9.41638 29.6985 9.42579 29.5817ZM8.39619 22.7896C8.41735 22.897 8.52548 22.9624 8.63361 22.9297C9.81366 22.6074 11.0172 21.6918 11.8518 20.3347C12.6863 18.9777 12.9566 17.5038 12.7075 16.3102C12.6863 16.2028 12.5547 16.1047 12.47 16.1701C11.3863 16.9666 10.0864 17.408 9.25187 18.7651C8.41972 20.1105 8.14705 21.5937 8.39619 22.7896ZM7.78971 22.918C7.88609 22.9507 8.00598 22.897 8.03889 22.7989C8.38444 21.6264 8.234 20.1292 7.51938 18.7184C6.80476 17.3076 5.54714 16.7587 4.52922 15.8758C4.44225 15.801 4.31295 15.8968 4.28005 15.9949C3.93449 17.1674 4.08494 18.6646 4.79956 20.0754C5.51652 21.4862 6.64253 22.5 7.78971 22.918ZM12.7521 14.7381C13.8029 13.6613 14.3671 12.3369 14.3882 11.1854C14.3882 11.078 14.2919 10.9588 14.2049 11.0032C13.0342 11.5194 11.7342 11.6596 10.6835 12.7363C9.63269 13.8131 9.06851 15.1375 9.04733 16.289C9.04733 16.3964 9.13431 16.4712 9.23069 16.4712C10.4013 16.4175 11.7013 15.8148 12.7521 14.7381ZM8.46203 16.289C8.549 16.3428 8.66889 16.3101 8.7112 16.2236C9.27538 15.2123 9.44701 13.7921 9.08027 12.337C8.7112 10.8725 7.66041 10.1086 6.90349 9.07628C6.83766 8.98985 6.69662 9.05525 6.65431 9.14168C6.09013 10.1531 5.91851 11.5732 6.28525 13.0284C6.65431 14.4905 7.47708 15.663 8.46203 16.289ZM16.1324 5.51397C14.9947 5.95542 13.7605 6.03017 12.7191 7.01118C11.6801 7.98984 11.083 9.21845 11.0196 10.3162C11.0078 10.412 11.0948 10.4984 11.1935 10.4984C12.2983 10.4984 13.5654 9.98222 14.6068 9.00121C15.6458 8.02254 16.2429 6.79393 16.3063 5.69616C16.304 5.58871 16.2194 5.46959 16.1324 5.51397ZM10.4554 10.2929C10.5306 10.3466 10.6505 10.3256 10.6928 10.2392C11.2781 9.30256 11.4944 7.95717 11.2123 6.55808C10.9302 5.17066 9.96644 4.39517 9.28473 3.3838C9.23067 3.29738 9.08962 3.3511 9.04731 3.43752C8.46198 4.37415 8.23394 5.70788 8.5278 7.10697C8.81929 8.50605 9.5574 9.65759 10.4554 10.2929ZM12.2866 6.19133C13.4996 6.03016 14.7996 5.27574 15.7962 4.04947C16.7929 2.82319 17.2467 1.39139 17.162 0.186165C17.1502 0.0787189 17.0421 -0.0404047 16.9457 0.0133212C15.7657 0.657972 14.4328 0.928904 13.4361 2.15518C12.4394 3.39312 11.9857 4.81325 12.0821 6.0302C12.0797 6.13765 12.1785 6.21235 12.2866 6.19133ZM28.4692 43.0891C28.3823 43.1008 28.2859 43.1101 28.1989 43.1218C28.1025 43.1335 28.0156 43.1428 27.9168 43.1428C27.7217 43.1545 27.5266 43.1545 27.3315 43.1638C27.1364 43.1638 26.9413 43.1638 26.7462 43.1521C26.551 43.1405 26.3559 43.1311 26.1608 43.1101C25.3804 43.0354 24.5999 42.9046 23.8312 42.7107C23.6361 42.6686 23.4528 42.6032 23.2577 42.5495L22.9756 42.4631C22.8792 42.4304 22.7922 42.3977 22.6935 42.3673L22.1293 42.1735L21.5769 41.9469C21.1984 41.8067 20.8505 41.6129 20.4838 41.4517C20.1265 41.2695 19.7786 41.064 19.4213 40.8818C19.7575 41.1084 20.0819 41.3443 20.418 41.5592C20.7635 41.7647 21.0997 41.9889 21.4688 42.1618L22.0094 42.4421L22.5619 42.6896C22.6582 42.7317 22.7452 42.7761 22.8439 42.8181L23.126 42.9256C23.3211 43.0003 23.5045 43.0774 23.6996 43.1404C24.4683 43.4091 25.2605 43.6239 26.0715 43.7758C26.2783 43.8178 26.4735 43.8505 26.678 43.8715C26.8848 43.9042 27.0893 43.9253 27.2962 43.9463C27.503 43.958 27.7076 43.979 27.9238 43.9883C28.032 43.9883 28.1307 44 28.2388 44C28.347 44 28.4457 44 28.575 43.9883H28.6173C28.8665 43.9463 29.0287 43.7197 28.9958 43.4721C28.9464 43.2175 28.709 43.047 28.4692 43.0891Z" fill="url(#paint0_linear_1047_3943)"/>
</g>
<g filter="url(#filter1_d_1047_3943)">
<path d="M162.891 35.5986C163.329 33.8445 164.295 32.4547 165.439 31.712C165.543 31.6466 165.719 31.6699 165.73 31.7867C165.929 33.305 166.563 34.7134 166.125 36.4699C165.687 38.224 164.721 39.6138 163.577 40.3565C163.473 40.4219 163.338 40.3892 163.286 40.2818C162.641 39.0532 162.453 37.3411 162.891 35.5986ZM167.477 37.8363C169.14 37.2991 170.535 37.89 172.01 38.0302C172.126 38.0418 172.157 38.224 172.103 38.3315C171.437 39.5484 170.137 40.6018 168.463 41.1414C166.8 41.6786 165.134 41.5618 163.929 40.9475C163.825 40.8938 163.783 40.7536 163.837 40.6462C164.502 39.441 165.814 38.3758 167.477 37.8363ZM168.578 35.4048C168.495 35.4912 168.37 35.4795 168.287 35.3931C167.465 34.3817 166.967 32.8308 167.059 31.1211C167.143 29.4089 167.788 27.9141 168.713 26.9985C168.797 26.9121 168.964 26.9027 169.005 27.0102C169.472 28.3883 170.325 29.5725 170.232 31.2822C170.149 32.9943 169.506 34.4892 168.578 35.4048ZM169.027 35.8883C168.912 35.8556 168.851 35.7365 168.892 35.629C169.287 34.37 170.307 33.1204 171.751 32.2913C173.206 31.4621 174.61 31.7424 176.005 31.5695C176.12 31.5579 176.181 31.7214 176.14 31.8288C175.745 33.0878 174.725 34.3374 173.281 35.1666C171.823 35.9864 170.264 36.2106 169.027 35.8883ZM172.177 29.5817C171.076 28.9791 170.097 27.7739 169.578 26.1902C169.059 24.6182 169.111 23.0252 169.618 21.8644C169.659 21.7569 169.806 21.6822 169.878 21.7686C170.772 22.8337 171.959 23.5764 172.478 25.1601C172.997 26.7321 172.945 28.3251 172.437 29.4859C172.396 29.591 172.27 29.6354 172.177 29.5817ZM172.791 29.5817C172.708 28.3017 173.186 26.7928 174.195 25.5012C175.215 24.2095 176.576 23.9292 177.772 23.2519C177.864 23.1981 177.979 23.3173 177.991 23.434C178.074 24.714 177.596 26.2229 176.587 27.5146C175.567 28.8063 174.238 29.5911 173.01 29.7639C172.895 29.7756 172.8 29.6985 172.791 29.5817ZM173.78 22.7896C173.759 22.897 173.656 22.9624 173.552 22.9297C172.419 22.6074 171.263 21.6918 170.462 20.3347C169.661 18.9777 169.402 17.5038 169.641 16.3102C169.661 16.2028 169.788 16.1047 169.869 16.1701C170.909 16.9666 172.157 17.408 172.958 18.7651C173.757 20.1105 174.019 21.5937 173.78 22.7896ZM174.362 22.918C174.269 22.9507 174.154 22.897 174.123 22.7989C173.791 21.6264 173.935 20.1292 174.621 18.7184C175.307 17.3076 176.515 16.7587 177.492 15.8758C177.575 15.801 177.7 15.8968 177.731 15.9949C178.063 17.1674 177.918 18.6646 177.232 20.0754C176.544 21.4862 175.463 22.5 174.362 22.918ZM169.598 14.7381C168.589 13.6613 168.048 12.3369 168.027 11.1854C168.027 11.078 168.12 10.9588 168.203 11.0032C169.327 11.5194 170.575 11.6596 171.584 12.7363C172.593 13.8131 173.134 15.1375 173.155 16.289C173.155 16.3964 173.071 16.4712 172.979 16.4712C171.855 16.4175 170.607 15.8148 169.598 14.7381ZM173.716 16.289C173.633 16.3428 173.518 16.3101 173.477 16.2236C172.936 15.2123 172.771 13.7921 173.123 12.337C173.477 10.8725 174.486 10.1086 175.213 9.07628C175.276 8.98985 175.411 9.05525 175.452 9.14168C175.993 10.1531 176.158 11.5732 175.806 13.0284C175.452 14.4905 174.662 15.663 173.716 16.289ZM166.353 5.51397C167.445 5.95542 168.63 6.03017 169.63 7.01118C170.627 7.98984 171.2 9.21845 171.261 10.3162C171.273 10.412 171.189 10.4984 171.094 10.4984C170.034 10.4984 168.817 9.98222 167.817 9.00121C166.82 8.02254 166.247 6.79393 166.186 5.69616C166.188 5.58871 166.269 5.46959 166.353 5.51397ZM171.803 10.2929C171.731 10.3466 171.616 10.3256 171.575 10.2392C171.013 9.30256 170.805 7.95717 171.076 6.55808C171.347 5.17066 172.272 4.39517 172.927 3.3838C172.979 3.29738 173.114 3.3511 173.155 3.43752C173.717 4.37415 173.935 5.70788 173.653 7.10697C173.373 8.50605 172.665 9.65759 171.803 10.2929ZM170.045 6.19133C168.88 6.03016 167.632 5.27574 166.676 4.04947C165.719 2.82319 165.283 1.39139 165.364 0.186165C165.376 0.0787189 165.48 -0.0404047 165.572 0.0133212C166.705 0.657972 167.985 0.928904 168.941 2.15518C169.898 3.39312 170.334 4.81325 170.241 6.0302C170.243 6.13765 170.149 6.21235 170.045 6.19133ZM154.51 43.0891C154.593 43.1008 154.686 43.1101 154.769 43.1218C154.862 43.1335 154.945 43.1428 155.04 43.1428C155.227 43.1545 155.414 43.1545 155.602 43.1638C155.789 43.1638 155.976 43.1638 156.164 43.1521C156.351 43.1405 156.538 43.1311 156.726 43.1101C157.475 43.0354 158.224 42.9046 158.962 42.7107C159.149 42.6686 159.325 42.6032 159.513 42.5495L159.783 42.4631C159.876 42.4304 159.959 42.3977 160.054 42.3673L160.596 42.1735L161.126 41.9469C161.49 41.8067 161.823 41.6129 162.176 41.4517C162.519 41.2695 162.853 41.064 163.196 40.8818C162.873 41.1084 162.561 41.3443 162.239 41.5592C161.907 41.7647 161.584 41.9889 161.23 42.1618L160.711 42.4421L160.181 42.6896C160.088 42.7317 160.005 42.7761 159.91 42.8181L159.639 42.9256C159.452 43.0003 159.276 43.0774 159.088 43.1404C158.35 43.4091 157.59 43.6239 156.811 43.7758C156.613 43.8178 156.425 43.8505 156.229 43.8715C156.031 43.9042 155.834 43.9253 155.636 43.9463C155.437 43.958 155.241 43.979 155.033 43.9883C154.929 43.9883 154.835 44 154.731 44C154.627 44 154.532 44 154.408 43.9883H154.367C154.128 43.9463 153.972 43.7197 154.004 43.4721C154.051 43.2175 154.279 43.047 154.51 43.0891Z" fill="url(#paint1_linear_1047_3943)"/>
</g>
<path d="M34.5391 28.3047C33.6016 28.3047 32.7891 28.1693 32.1016 27.8984C31.4141 27.6224 30.875 27.2344 30.4844 26.7344C30.099 26.2292 29.8854 25.6276 29.8438 24.9297L29.8359 24.7891H32.5781L32.5859 24.8594C32.612 25.0885 32.7109 25.2943 32.8828 25.4766C33.0547 25.6536 33.2865 25.7943 33.5781 25.8984C33.8698 26.0026 34.2057 26.0547 34.5859 26.0547C34.9609 26.0547 35.2865 26.0026 35.5625 25.8984C35.8385 25.7943 36.0521 25.6484 36.2031 25.4609C36.3594 25.2734 36.4375 25.0625 36.4375 24.8281V24.8203C36.4375 24.5026 36.2995 24.2578 36.0234 24.0859C35.7474 23.9141 35.2786 23.763 34.6172 23.6328L33.4531 23.4062C32.2656 23.1719 31.3984 22.776 30.8516 22.2188C30.3099 21.6615 30.0391 20.9427 30.0391 20.0625V20.0547C30.0443 19.3203 30.2396 18.6823 30.625 18.1406C31.0104 17.5938 31.5391 17.1719 32.2109 16.875C32.8828 16.5729 33.651 16.4219 34.5156 16.4219C35.4583 16.4219 36.2552 16.5703 36.9062 16.8672C37.5625 17.1589 38.0703 17.5625 38.4297 18.0781C38.7891 18.5885 38.9974 19.1771 39.0547 19.8438L39.0625 19.9375H36.4062L36.3906 19.8516C36.349 19.612 36.2474 19.4062 36.0859 19.2344C35.9297 19.0573 35.7188 18.9193 35.4531 18.8203C35.1875 18.7214 34.8802 18.6719 34.5312 18.6719C34.1927 18.6719 33.901 18.7214 33.6562 18.8203C33.4115 18.9141 33.2214 19.0469 33.0859 19.2188C32.9557 19.3854 32.8906 19.5807 32.8906 19.8047V19.8125C32.8906 20.1354 33.026 20.3932 33.2969 20.5859C33.5729 20.7734 34.0156 20.9245 34.625 21.0391L35.7891 21.2656C36.5911 21.4219 37.25 21.638 37.7656 21.9141C38.2812 22.1901 38.6615 22.5417 38.9062 22.9688C39.1562 23.3958 39.2812 23.9141 39.2812 24.5234V24.5312C39.2812 25.2969 39.0911 25.9635 38.7109 26.5312C38.3359 27.0938 37.7943 27.5312 37.0859 27.8438C36.3776 28.151 35.5286 28.3047 34.5391 28.3047ZM45.0781 28.0156C43.9375 28.0156 43.1198 27.8281 42.625 27.4531C42.1302 27.0781 41.8828 26.4661 41.8828 25.6172V21.3359H40.5547V19.3047H41.8828V17.3125H44.6641V19.3047H46.4062V21.3359H44.6641V24.9922C44.6641 25.3151 44.7474 25.5573 44.9141 25.7188C45.0859 25.8802 45.3516 25.9609 45.7109 25.9609C45.8672 25.9609 45.9974 25.9583 46.1016 25.9531C46.2057 25.9427 46.3073 25.9323 46.4062 25.9219V27.9062C46.2604 27.9375 46.0677 27.9635 45.8281 27.9844C45.5938 28.0052 45.3438 28.0156 45.0781 28.0156ZM50.5938 28.1328C50.0417 28.1328 49.5547 28.0234 49.1328 27.8047C48.7109 27.5859 48.3802 27.2812 48.1406 26.8906C47.9062 26.4948 47.7891 26.0339 47.7891 25.5078V25.4922C47.7891 24.9661 47.9219 24.5156 48.1875 24.1406C48.4583 23.7604 48.8516 23.4635 49.3672 23.25C49.888 23.0365 50.5208 22.9062 51.2656 22.8594L54.5234 22.6641V24.2188L51.7031 24.3984C51.2969 24.4245 50.987 24.5156 50.7734 24.6719C50.5599 24.8281 50.4531 25.0365 50.4531 25.2969V25.3125C50.4531 25.5833 50.5599 25.7995 50.7734 25.9609C50.987 26.1224 51.2682 26.2031 51.6172 26.2031C51.9089 26.2031 52.1693 26.1458 52.3984 26.0312C52.6328 25.9115 52.8177 25.7526 52.9531 25.5547C53.0938 25.3516 53.1641 25.125 53.1641 24.875V22.0703C53.1641 21.7734 53.0573 21.5443 52.8438 21.3828C52.6354 21.2161 52.3411 21.1328 51.9609 21.1328C51.5964 21.1328 51.3021 21.1927 51.0781 21.3125C50.8594 21.4323 50.7083 21.599 50.625 21.8125L50.6094 21.8516H48.1016L48.1094 21.7578C48.1615 21.2214 48.3542 20.7552 48.6875 20.3594C49.026 19.9635 49.487 19.6562 50.0703 19.4375C50.6536 19.2135 51.3359 19.1016 52.1172 19.1016C52.9245 19.1016 53.6068 19.2188 54.1641 19.4531C54.7266 19.6875 55.1536 20.026 55.4453 20.4688C55.737 20.9115 55.8828 21.4453 55.8828 22.0703V28H53.1641V26.9219H53.0156C52.8854 27.1667 52.7005 27.3802 52.4609 27.5625C52.2266 27.7448 51.9479 27.8854 51.625 27.9844C51.3073 28.0833 50.9635 28.1328 50.5938 28.1328ZM57.9922 28V19.3047H60.7656V20.6875H60.9141C61.0443 20.2083 61.2917 19.8359 61.6562 19.5703C62.026 19.3047 62.487 19.1719 63.0391 19.1719C63.2109 19.1719 63.3776 19.1849 63.5391 19.2109C63.7005 19.2318 63.849 19.2656 63.9844 19.3125V21.6562C63.8021 21.6042 63.612 21.5651 63.4141 21.5391C63.2161 21.513 63.0208 21.5 62.8281 21.5C62.3958 21.5 62.026 21.5755 61.7188 21.7266C61.4115 21.8724 61.1745 22.0885 61.0078 22.375C60.8464 22.6562 60.7656 23 60.7656 23.4062V28H57.9922ZM71.0312 24.7031V22.5312H73.7578C74.3672 22.5312 74.8411 22.3776 75.1797 22.0703C75.5234 21.763 75.6953 21.3177 75.6953 20.7344V20.7188C75.6953 20.1302 75.5234 19.6849 75.1797 19.3828C74.8411 19.0807 74.3672 18.9297 73.7578 18.9297H71.0312V16.7266H74.4531C75.2917 16.7266 76.0208 16.8932 76.6406 17.2266C77.2604 17.5547 77.7396 18.0182 78.0781 18.6172C78.4219 19.2109 78.5938 19.9115 78.5938 20.7188V20.7344C78.5938 21.5365 78.4219 22.237 78.0781 22.8359C77.7396 23.4297 77.2604 23.8906 76.6406 24.2188C76.0208 24.5417 75.2917 24.7031 74.4531 24.7031H71.0312ZM69.5938 28V16.7266H72.4609V28H69.5938ZM84.1797 28.2031C83.2682 28.2031 82.4844 28.0208 81.8281 27.6562C81.1771 27.2865 80.6745 26.763 80.3203 26.0859C79.9661 25.4089 79.7891 24.599 79.7891 23.6562V23.6484C79.7891 22.7109 79.9635 21.9036 80.3125 21.2266C80.6667 20.5443 81.1641 20.0208 81.8047 19.6562C82.4453 19.2865 83.2031 19.1016 84.0781 19.1016C84.9531 19.1016 85.7109 19.2812 86.3516 19.6406C86.9922 20 87.487 20.5078 87.8359 21.1641C88.1849 21.8203 88.3594 22.5911 88.3594 23.4766V24.2734H81.1641V22.6641H87.0469L85.7656 24.2031V23.1016C85.7656 22.6589 85.6979 22.2891 85.5625 21.9922C85.4271 21.6901 85.237 21.4609 84.9922 21.3047C84.7526 21.1484 84.4714 21.0703 84.1484 21.0703C83.8255 21.0703 83.5417 21.151 83.2969 21.3125C83.0521 21.4688 82.8594 21.6979 82.7188 22C82.5833 22.3021 82.5156 22.6693 82.5156 23.1016V24.2188C82.5156 24.6406 82.5833 25.0026 82.7188 25.3047C82.8542 25.6068 83.0495 25.8385 83.3047 26C83.5651 26.1562 83.875 26.2344 84.2344 26.2344C84.5417 26.2344 84.7995 26.1875 85.0078 26.0938C85.2214 25.9948 85.388 25.8854 85.5078 25.7656C85.6328 25.6458 85.7135 25.5495 85.75 25.4766L85.7734 25.4453L88.3047 25.4375L88.2812 25.5312C88.224 25.7865 88.1068 26.0703 87.9297 26.3828C87.7578 26.6901 87.5104 26.9818 87.1875 27.2578C86.8698 27.5339 86.4635 27.7604 85.9688 27.9375C85.474 28.1146 84.8776 28.2031 84.1797 28.2031ZM90.0859 28V19.3047H92.8594V20.6875H93.0078C93.138 20.2083 93.3854 19.8359 93.75 19.5703C94.1198 19.3047 94.5807 19.1719 95.1328 19.1719C95.3047 19.1719 95.4714 19.1849 95.6328 19.2109C95.7943 19.2318 95.9427 19.2656 96.0781 19.3125V21.6562C95.8958 21.6042 95.7057 21.5651 95.5078 21.5391C95.3099 21.513 95.1146 21.5 94.9219 21.5C94.4896 21.5 94.1198 21.5755 93.8125 21.7266C93.5052 21.8724 93.2682 22.0885 93.1016 22.375C92.9401 22.6562 92.8594 23 92.8594 23.4062V28H90.0859ZM98.5234 28V21.3359H97.1328V19.3047H98.5234V18.5781C98.5234 18 98.6276 17.5182 98.8359 17.1328C99.0495 16.7422 99.3932 16.4505 99.8672 16.2578C100.346 16.0599 100.971 15.9609 101.742 15.9609C102.013 15.9609 102.255 15.9688 102.469 15.9844C102.688 16 102.883 16.0208 103.055 16.0469V17.7969C102.992 17.7865 102.901 17.7786 102.781 17.7734C102.661 17.763 102.518 17.7578 102.352 17.7578C101.935 17.7578 101.641 17.849 101.469 18.0312C101.302 18.2083 101.219 18.4635 101.219 18.7969V19.3047H102.992V21.3359H101.297V28H98.5234ZM108.469 28.2031C107.547 28.2031 106.753 28.0234 106.086 27.6641C105.424 27.2995 104.917 26.7786 104.562 26.1016C104.214 25.4193 104.039 24.6042 104.039 23.6562V23.6406C104.039 22.7031 104.219 21.8958 104.578 21.2188C104.938 20.5417 105.448 20.0208 106.109 19.6562C106.771 19.2865 107.557 19.1016 108.469 19.1016C109.385 19.1016 110.174 19.2839 110.836 19.6484C111.503 20.013 112.013 20.5339 112.367 21.2109C112.727 21.888 112.906 22.6979 112.906 23.6406V23.6562C112.906 24.6042 112.729 25.4193 112.375 26.1016C112.026 26.7786 111.521 27.2995 110.859 27.6641C110.198 28.0234 109.401 28.2031 108.469 28.2031ZM108.469 26.1016C108.807 26.1016 109.094 26.0052 109.328 25.8125C109.568 25.6146 109.75 25.3333 109.875 24.9688C110 24.6042 110.062 24.1667 110.062 23.6562V23.6406C110.062 23.1354 109.997 22.7031 109.867 22.3438C109.742 21.9792 109.562 21.6979 109.328 21.5C109.094 21.3021 108.807 21.2031 108.469 21.2031C108.141 21.2031 107.857 21.3021 107.617 21.5C107.378 21.6979 107.193 21.9792 107.062 22.3438C106.938 22.7031 106.875 23.1354 106.875 23.6406V23.6562C106.875 24.1719 106.938 24.612 107.062 24.9766C107.188 25.3411 107.37 25.6198 107.609 25.8125C107.849 26.0052 108.135 26.1016 108.469 26.1016ZM114.617 28V19.3047H117.391V20.6875H117.539C117.669 20.2083 117.917 19.8359 118.281 19.5703C118.651 19.3047 119.112 19.1719 119.664 19.1719C119.836 19.1719 120.003 19.1849 120.164 19.2109C120.326 19.2318 120.474 19.2656 120.609 19.3125V21.6562C120.427 21.6042 120.237 21.5651 120.039 21.5391C119.841 21.513 119.646 21.5 119.453 21.5C119.021 21.5 118.651 21.5755 118.344 21.7266C118.036 21.8724 117.799 22.0885 117.633 22.375C117.471 22.6562 117.391 23 117.391 23.4062V28H114.617ZM122.07 28V19.3047H124.844V20.6875H124.992C125.174 20.1823 125.484 19.7917 125.922 19.5156C126.359 19.2396 126.865 19.1016 127.438 19.1016C127.833 19.1016 128.193 19.1667 128.516 19.2969C128.839 19.4219 129.115 19.6068 129.344 19.8516C129.573 20.0911 129.742 20.388 129.852 20.7422H130C130.125 20.4089 130.312 20.1198 130.562 19.875C130.818 19.6302 131.12 19.4401 131.469 19.3047C131.823 19.1693 132.203 19.1016 132.609 19.1016C133.182 19.1016 133.68 19.224 134.102 19.4688C134.529 19.7135 134.859 20.0573 135.094 20.5C135.328 20.9375 135.445 21.4557 135.445 22.0547V28H132.672V22.7578C132.672 22.4453 132.625 22.1875 132.531 21.9844C132.443 21.776 132.305 21.6198 132.117 21.5156C131.935 21.4115 131.703 21.3594 131.422 21.3594C131.161 21.3594 130.935 21.4193 130.742 21.5391C130.549 21.6589 130.401 21.8255 130.297 22.0391C130.198 22.2474 130.148 22.4948 130.148 22.7812V28H127.375V22.7109C127.375 22.4193 127.326 22.1719 127.227 21.9688C127.133 21.7656 126.992 21.6146 126.805 21.5156C126.622 21.4115 126.398 21.3594 126.133 21.3594C125.878 21.3594 125.654 21.4219 125.461 21.5469C125.268 21.6667 125.117 21.8385 125.008 22.0625C124.898 22.2812 124.844 22.5365 124.844 22.8281V28H122.07ZM141.492 28.2031C140.581 28.2031 139.797 28.0208 139.141 27.6562C138.49 27.2865 137.987 26.763 137.633 26.0859C137.279 25.4089 137.102 24.599 137.102 23.6562V23.6484C137.102 22.7109 137.276 21.9036 137.625 21.2266C137.979 20.5443 138.477 20.0208 139.117 19.6562C139.758 19.2865 140.516 19.1016 141.391 19.1016C142.266 19.1016 143.023 19.2812 143.664 19.6406C144.305 20 144.799 20.5078 145.148 21.1641C145.497 21.8203 145.672 22.5911 145.672 23.4766V24.2734H138.477V22.6641H144.359L143.078 24.2031V23.1016C143.078 22.6589 143.01 22.2891 142.875 21.9922C142.74 21.6901 142.549 21.4609 142.305 21.3047C142.065 21.1484 141.784 21.0703 141.461 21.0703C141.138 21.0703 140.854 21.151 140.609 21.3125C140.365 21.4688 140.172 21.6979 140.031 22C139.896 22.3021 139.828 22.6693 139.828 23.1016V24.2188C139.828 24.6406 139.896 25.0026 140.031 25.3047C140.167 25.6068 140.362 25.8385 140.617 26C140.878 26.1562 141.188 26.2344 141.547 26.2344C141.854 26.2344 142.112 26.1875 142.32 26.0938C142.534 25.9948 142.701 25.8854 142.82 25.7656C142.945 25.6458 143.026 25.5495 143.062 25.4766L143.086 25.4453L145.617 25.4375L145.594 25.5312C145.536 25.7865 145.419 26.0703 145.242 26.3828C145.07 26.6901 144.823 26.9818 144.5 27.2578C144.182 27.5339 143.776 27.7604 143.281 27.9375C142.786 28.1146 142.19 28.2031 141.492 28.2031ZM147.398 28V19.3047H150.172V20.6875H150.32C150.451 20.2083 150.698 19.8359 151.062 19.5703C151.432 19.3047 151.893 19.1719 152.445 19.1719C152.617 19.1719 152.784 19.1849 152.945 19.2109C153.107 19.2318 153.255 19.2656 153.391 19.3125V21.6562C153.208 21.6042 153.018 21.5651 152.82 21.5391C152.622 21.513 152.427 21.5 152.234 21.5C151.802 21.5 151.432 21.5755 151.125 21.7266C150.818 21.8724 150.581 22.0885 150.414 22.375C150.253 22.6562 150.172 23 150.172 23.4062V28H147.398Z" fill="#D2A317"/>
<defs>
<filter id="filter0_d_1047_3943" x="0" y="0" width="33" height="55" filterUnits="userSpaceOnUse" color-interpolation-filters="sRGB">
<feFlood flood-opacity="0" result="BackgroundImageFix"/>
<feColorMatrix in="SourceAlpha" type="matrix" values="0 0 0 0 0 0 0 0 0 0 0 0 0 0 0 0 0 0 127 0" result="hardAlpha"/>
<feOffset dy="7"/>
<feGaussianBlur stdDeviation="2"/>
<feComposite in2="hardAlpha" operator="out"/>
<feColorMatrix type="matrix" values="0 0 0 0 0.906288 0 0 0 0 0.744506 0 0 0 0 0.262603 0 0 0 0.27 0"/>
<feBlend mode="normal" in2="BackgroundImageFix" result="effect1_dropShadow_1047_3943"/>
<feBlend mode="normal" in="SourceGraphic" in2="effect1_dropShadow_1047_3943" result="shape"/>
</filter>
<filter id="filter1_d_1047_3943" x="150" y="0" width="32" height="55" filterUnits="userSpaceOnUse" color-interpolation-filters="sRGB">
<feFlood flood-opacity="0" result="BackgroundImageFix"/>
<feColorMatrix in="SourceAlpha" type="matrix" values="0 0 0 0 0 0 0 0 0 0 0 0 0 0 0 0 0 0 127 0" result="hardAlpha"/>
<feOffset dy="7"/>
<feGaussianBlur stdDeviation="2"/>
<feComposite in2="hardAlpha" operator="out"/>
<feColorMatrix type="matrix" values="0 0 0 0 0.906288 0 0 0 0 0.744506 0 0 0 0 0.262603 0 0 0 0.27 0"/>
<feBlend mode="normal" in2="BackgroundImageFix" result="effect1_dropShadow_1047_3943"/>
<feBlend mode="normal" in="SourceGraphic" in2="effect1_dropShadow_1047_3943" result="shape"/>
</filter>
<linearGradient id="paint0_linear_1047_3943" x1="16.5" y1="0" x2="16.5" y2="44" gradientUnits="userSpaceOnUse">
<stop stop-color="#F5CE57"/>
<stop offset="1" stop-color="#DAA813"/>
</linearGradient>
<linearGradient id="paint1_linear_1047_3943" x1="166" y1="0" x2="166" y2="44" gradientUnits="userSpaceOnUse">
<stop stop-color="#F5CE57"/>
<stop offset="1" stop-color="#DAA813"/>
</linearGradient>
</defs>
</svg>
