<svg width="33" height="66" viewBox="0 0 33 66" fill="none" xmlns="http://www.w3.org/2000/svg">
<path d="M16.5686 56.0848C16.5369 56.0632 16.5026 56.034 16.4656 56.0048C15.8769 55.3029 12.2348 50.9162 8.52417 45.2893C7.41004 43.497 6.68797 42.0983 6.82789 41.7365C7.19091 40.796 13.6605 40.2806 15.6525 41.1336C16.2584 41.3925 16.2425 41.734 16.2425 41.9345C16.2425 42.7951 16.199 45.1053 16.199 45.1053C16.199 45.5825 16.6016 45.9697 17.0993 45.9684C17.5969 45.9684 17.9982 45.5787 17.9969 45.1002L17.9877 39.3464H17.9863C17.9863 38.8463 17.4187 38.7219 17.3131 38.7016C16.2729 38.6952 14.1621 38.6902 11.8943 38.6902C6.89126 38.6902 5.77185 38.8882 4.92437 38.3525C3.0829 37.1949 0.071846 29.3912 0.00188303 24.9994C-0.0971212 18.8052 3.71784 13.4423 9.09311 10.7857C11.3372 9.69914 13.8717 9.08606 16.5514 9.08606C25.0579 9.08606 32.0647 15.26 32.9967 23.2046C32.9967 23.2109 32.9967 23.2198 32.998 23.2262C33.1696 25.1466 22.1617 25.5541 19.9849 24.9956C19.6509 24.9105 19.5664 24.5805 19.5664 24.4396C19.5651 22.9799 19.5546 18.8699 19.5546 18.8699C19.5532 18.3914 19.1493 18.0055 18.6516 18.0055C18.1553 18.0055 17.7527 18.3952 17.7527 18.8737L17.7725 26.4439C17.7883 26.9211 18.2041 27.0493 18.319 27.0722C19.5572 27.0722 22.4521 27.0709 25.149 27.0709C28.7936 27.0709 30.3249 27.4771 31.344 28.2222C32.0212 28.7185 32.2825 29.6692 32.0542 30.9055C30.0094 41.8977 17.0597 55.5187 16.5726 56.0861L16.5686 56.0848Z" fill="#6E6E6E"/>
</svg>
