<svg width="156" height="52" viewBox="0 0 156 52" fill="none" xmlns="http://www.w3.org/2000/svg">
<path fill-rule="evenodd" clip-rule="evenodd" d="M30.8945 39.2374C29.6116 40.1445 27.9253 40.2807 26.6189 39.6913C26.6189 39.6913 26.2627 39.5552 25.9305 39.1924C25.6448 38.8516 18.424 31.0745 18.424 31.0745L18.4005 31.0515C20.6336 31.4372 23.08 30.4171 24.3389 28.5577C25.5973 26.789 25.5507 24.2721 24.3629 22.5034C22.9379 20.576 20.1583 19.9414 17.8306 20.2357C13.7928 20.7801 10.8946 24.2041 9.99292 27.7872C9.06586 31.8681 9.73132 35.7228 11.1809 39.3509C11.5125 40.1219 11.9644 40.9156 12.5107 41.5952C8.2583 39.8274 4.50557 36.562 2.53459 32.1853C0.34915 27.469 0.396632 21.5056 2.98594 16.7213C5.02841 13.0256 8.63851 9.6015 13.1042 8.15001C17.7831 6.31372 24.0776 6.69905 28.6385 9.14768C34.1724 11.7781 38.3528 18.3318 38.3765 24.1815C38.5666 30.2358 35.763 35.7228 30.8945 39.2374Z" fill="#BFA161"/>
<path fill-rule="evenodd" clip-rule="evenodd" d="M15.3595 41.5279C13.2934 39.3958 11.6303 36.6298 12.8897 33.7503C14.0055 31.5507 15.0032 29.3056 15.4785 26.7657C15.6683 29.4191 17.3554 31.7774 18.1621 34.3172C18.4708 35.5416 18.4952 36.8114 17.9963 38.0809C17.45 39.4639 16.5708 40.6427 15.5256 41.7085L15.3595 41.5279Z" fill="#BFA161"/>
<path fill-rule="evenodd" clip-rule="evenodd" d="M66.0756 27.6512H60.5752C59.3564 25.8258 58.2556 24.2488 57.2668 22.9207C56.2836 21.5928 55.2174 20.2223 54.0665 18.8104H51.9775V25.0002C51.9775 25.3196 52.0317 25.6008 52.1351 25.8449C52.2382 26.0835 52.4643 26.2722 52.8131 26.3982C52.9852 26.4643 53.2855 26.5248 53.7177 26.5769C54.15 26.633 54.5144 26.666 54.8141 26.675V27.6512H46.1719V26.675C46.4031 26.6559 46.7378 26.624 47.175 26.5769C47.6124 26.5349 47.9171 26.4733 48.0892 26.3982C48.375 26.2807 48.5855 26.1075 48.7137 25.8779C48.8457 25.6472 48.9103 25.3566 48.9103 25.0002V10.8931C48.9103 10.5694 48.8613 10.2882 48.7622 10.0395C48.6697 9.79041 48.4429 9.60278 48.0892 9.47569C47.8486 9.39149 47.5344 9.31699 47.1507 9.25044C46.7664 9.18036 46.4427 9.13836 46.1719 9.1193V8.14318H55.6056C56.4707 8.14318 57.2814 8.22824 58.0389 8.39681C58.7949 8.56592 59.484 8.83774 60.099 9.21284C60.6933 9.57964 61.1706 10.0585 61.5243 10.6495C61.8786 11.2408 62.0597 11.954 62.0597 12.7896C62.0597 13.5405 61.9372 14.207 61.6961 14.7835C61.4548 15.3609 61.101 15.8587 60.6343 16.2806C60.2019 16.6744 59.6801 17.018 59.0761 17.3038C58.4717 17.5949 57.8027 17.8392 57.0758 18.0402C58.083 19.3166 58.9186 20.387 59.5876 21.2601C60.2561 22.1278 61.071 23.1885 62.0447 24.4319C62.4676 24.9858 62.8459 25.3891 63.1912 25.6518C63.5299 25.91 63.8686 26.1266 64.2033 26.2902C64.454 26.4078 64.7632 26.5019 65.1415 26.567C65.5154 26.6284 65.8255 26.666 66.0756 26.675V27.6512ZM58.5008 13.1033C58.5008 11.921 58.1465 10.9872 57.4345 10.2928C56.7265 9.60276 55.7182 9.25593 54.4258 9.25593H51.9775V17.6275H53.8653C55.1874 17.6275 56.2942 17.2242 57.1729 16.4117C58.0584 15.6006 58.5008 14.4972 58.5008 13.1033ZM79.1076 24.4605C78.5131 25.5446 77.7161 26.4034 76.7193 27.0462C75.7206 27.6888 74.5708 28.0079 73.2773 28.0079C72.1315 28.0079 71.1344 27.8153 70.2742 27.4305C69.4135 27.0462 68.7055 26.5248 68.1507 25.8634C67.5952 25.2059 67.1769 24.4319 66.9022 23.5542C66.6311 22.6722 66.4945 21.743 66.4945 20.7623C66.4945 19.8847 66.6415 19.0215 66.9314 18.1714C67.226 17.3227 67.6544 16.5623 68.2247 15.8818C68.7701 15.2338 69.4481 14.708 70.2592 14.3096C71.0703 13.9103 71.9804 13.7096 72.9882 13.7096C74.0248 13.7096 74.9145 13.8639 75.6521 14.1786C76.394 14.4877 76.9945 14.915 77.4519 15.4545C77.8932 15.9713 78.2224 16.5762 78.4391 17.2708C78.6557 17.9701 78.7637 18.7258 78.7637 19.5374V20.4481H69.36C69.36 21.3347 69.4481 22.1423 69.6246 22.8642C69.8013 23.5918 70.0825 24.2252 70.4703 24.7796C70.8442 25.3095 71.331 25.7273 71.9359 26.0371C72.5403 26.3418 73.2633 26.4973 74.099 26.4973C74.9535 26.4973 75.6917 26.3042 76.31 25.9245C76.9255 25.5446 77.5244 24.8592 78.0999 23.8684L79.1076 24.4605ZM75.9273 19.2931C75.9273 18.7774 75.8832 18.2284 75.7896 17.6415C75.6961 17.0551 75.5529 16.5672 75.3524 16.1729C75.1302 15.7506 74.8264 15.4078 74.4421 15.1402C74.06 14.873 73.5625 14.7413 72.9581 14.7413C71.9504 14.7413 71.1148 15.1403 70.4458 15.9427C69.7779 16.7453 69.4186 17.8621 69.36 19.2931H75.9273ZM87.1354 27.6512H80.4481V26.777C80.6616 26.7585 80.8894 26.7361 81.1321 26.7135C81.3742 26.6955 81.5728 26.6584 81.7299 26.614C81.9906 26.5368 82.1848 26.3958 82.3133 26.1972C82.4415 25.9976 82.5124 25.7388 82.508 25.4221L82.2898 10.9452C82.2879 10.7815 82.2129 10.3092 82.1227 9.98351C82.0817 9.83594 82.0376 9.71734 81.9956 9.6718C81.9511 9.62326 81.9361 9.57365 81.874 9.5207C81.6339 9.31559 81.932 9.60031 81.7079 9.41002C81.5598 9.28399 81.7689 9.36253 81.3246 9.27498C80.8839 9.18795 80.1462 9.38248 79.8756 9.36448L79.8516 8.41042L84.8382 8.15112L85.0754 8.34475L85.0948 25.2634C85.0948 25.5716 85.154 25.8244 85.2751 26.0246C85.3951 26.2226 85.5887 26.3783 85.859 26.4823C86.0625 26.573 86.2616 26.6365 86.4609 26.6816C86.6611 26.7271 86.8881 26.7585 87.1354 26.777V27.6512ZM95.7285 27.6512H88.9196V26.7525C89.1393 26.7349 89.3625 26.716 89.5965 26.6971C89.8313 26.6789 90.0304 26.642 90.2011 26.5853C90.4697 26.5064 90.6699 26.3622 90.796 26.1577C90.9225 25.9529 90.9915 25.6872 90.9915 25.3616V17.06C90.9915 16.7674 90.9181 16.5017 90.7815 16.2595C90.6449 16.0179 90.4496 15.8177 90.2011 15.6551C90.0214 15.5434 89.7626 15.4504 89.417 15.3759C89.0753 15.2968 88.7635 15.2502 88.4758 15.2313V14.3477L93.4479 14.045L93.6476 14.2361V25.199C93.6476 25.5157 93.7106 25.7803 93.8377 25.99C93.9642 26.1951 94.1693 26.3522 94.447 26.4508C94.6562 26.5349 94.8615 26.5995 95.0611 26.6505C95.2607 26.6971 95.4798 26.735 95.7285 26.7525V27.6512ZM93.9302 8.74507C93.9302 9.26138 93.7545 9.71274 93.3939 10.0991C93.038 10.4848 92.5998 10.6806 92.0729 10.6806C91.5904 10.6806 91.1663 10.4949 90.8104 10.127C90.4547 9.75936 90.274 9.33554 90.274 8.86566C90.274 8.36329 90.4547 7.93046 90.8104 7.55819C91.1663 7.18592 91.5904 6.99987 92.0729 6.99987C92.6192 6.99987 93.0626 7.17196 93.4084 7.52164C93.7545 7.8745 93.9302 8.27925 93.9302 8.74507ZM110.917 27.4025C110.465 27.5571 110.072 27.6836 109.733 27.7823C109.389 27.8764 109.005 27.9279 108.573 27.9279C107.821 27.9279 107.226 27.7588 106.778 27.4261C106.331 27.0882 106.046 26.6 105.923 25.9619H105.835C105.211 26.6184 104.542 27.1253 103.824 27.473C103.111 27.8197 102.251 27.994 101.243 27.994C100.177 27.994 99.3015 27.6836 98.6136 27.0602C97.9251 26.4358 97.5809 25.6198 97.5809 24.6151C97.5809 24.0896 97.6599 23.6248 97.8119 23.212C97.9692 22.7993 98.1958 22.4279 98.5055 22.0952C98.7462 21.823 99.0604 21.5788 99.4542 21.3626C99.847 21.1474 100.221 20.9734 100.565 20.8463C100.997 20.6922 101.872 20.4009 103.19 19.9782C104.513 19.5558 105.402 19.2282 105.864 18.9885V17.6275C105.864 17.51 105.84 17.2802 105.785 16.9425C105.731 16.6048 105.619 16.2805 105.446 15.9803C105.254 15.638 104.984 15.3424 104.63 15.0936C104.282 14.8395 103.785 14.7134 103.141 14.7134C102.699 14.7134 102.29 14.7835 101.911 14.929C101.533 15.0702 101.263 15.2197 101.111 15.3754C101.111 15.5584 101.155 15.8251 101.249 16.1865C101.341 16.5432 101.386 16.8719 101.386 17.1772C101.386 17.4959 101.233 17.7871 100.934 18.0544C100.629 18.3225 100.211 18.4536 99.6703 18.4536C99.1935 18.4536 98.8398 18.2895 98.6136 17.9657C98.3868 17.6415 98.2747 17.2752 98.2747 16.8719C98.2747 16.4491 98.432 16.0463 98.7416 15.6611C99.0564 15.2769 99.4586 14.9335 99.961 14.6333C100.393 14.3752 100.914 14.1595 101.528 13.9763C102.143 13.7982 102.743 13.7096 103.328 13.7096C104.134 13.7096 104.837 13.7657 105.442 13.8683C106.041 13.9719 106.582 14.2015 107.073 14.5493C107.565 14.887 107.934 15.3464 108.189 15.9282C108.445 16.5113 108.573 17.2618 108.573 18.1763C108.573 19.4903 108.558 20.6502 108.528 21.6629C108.499 22.6771 108.485 23.7844 108.485 24.9858C108.485 25.3425 108.548 25.6242 108.681 25.8348C108.809 26.0464 109.01 26.2247 109.276 26.3748C109.423 26.4544 109.65 26.5019 109.959 26.5109C110.273 26.5197 110.593 26.525 110.917 26.525V27.4025ZM105.894 20.1427C105.078 20.3725 104.36 20.5976 103.745 20.8182C103.131 21.0394 102.56 21.3111 102.035 21.6443C101.553 21.9546 101.174 22.3253 100.894 22.7516C100.619 23.1746 100.476 23.6813 100.476 24.2677C100.476 25.0278 100.688 25.5907 101.105 25.9474C101.524 26.3042 102.054 26.4828 102.693 26.4828C103.377 26.4828 103.976 26.3232 104.497 26.009C105.014 25.6943 105.451 25.3196 105.805 24.8873L105.894 20.1427ZM128.01 27.6512H121.054V26.7454C121.275 26.7271 121.52 26.708 121.781 26.6895C122.047 26.6704 122.263 26.633 122.44 26.5769C122.705 26.4973 122.907 26.3513 123.035 26.1451C123.167 25.9384 123.232 25.6712 123.232 25.3425V18.3691C123.232 17.4069 122.991 16.6659 122.518 16.1445C122.042 15.6236 121.461 15.3609 120.784 15.3609C120.273 15.3609 119.806 15.4359 119.382 15.5859C118.965 15.7362 118.586 15.9238 118.262 16.1445C117.947 16.3556 117.691 16.5812 117.504 16.8255C117.318 17.069 117.18 17.2618 117.097 17.4069V25.2059C117.097 25.5157 117.16 25.7743 117.299 25.976C117.432 26.1771 117.632 26.3328 117.903 26.4408C118.105 26.5349 118.32 26.6 118.556 26.6475C118.793 26.6936 119.034 26.7271 119.284 26.7454V27.6512H112.328V26.7454C112.549 26.7271 112.776 26.708 113.011 26.6895C113.248 26.6704 113.45 26.633 113.626 26.5769C113.892 26.4973 114.093 26.3513 114.221 26.1451C114.354 25.9384 114.418 25.6712 114.418 25.3425V16.97C114.418 16.6558 114.348 16.3695 114.206 16.1114C114.069 15.8488 113.872 15.6336 113.626 15.4689C113.444 15.3609 113.228 15.2813 112.977 15.2292C112.727 15.1777 112.457 15.1452 112.171 15.1261V14.2351L116.895 13.9299L117.097 14.1219V16.0318H117.165C117.397 15.8161 117.687 15.5485 118.03 15.2437C118.375 14.9385 118.705 14.6848 119.009 14.4933C119.368 14.2725 119.791 14.0889 120.277 13.9433C120.769 13.7982 121.319 13.7232 121.934 13.7232C123.295 13.7232 124.308 14.1309 124.967 14.9385C125.626 15.7507 125.949 16.8299 125.949 18.1763V25.2299C125.949 25.5533 126.009 25.8119 126.127 26.009C126.24 26.2062 126.437 26.3608 126.717 26.4689C126.947 26.5624 127.144 26.624 127.312 26.6605C127.479 26.698 127.715 26.7271 128.01 26.7454V27.6512ZM136.322 28.0079C134.267 28.0079 132.66 27.3555 131.495 26.0556C130.334 24.7561 129.755 23.0099 129.755 20.8182C129.755 19.8661 129.913 18.9745 130.222 18.1438C130.537 17.3133 130.988 16.5623 131.584 15.8818C132.149 15.2338 132.861 14.708 133.717 14.3096C134.567 13.9103 135.501 13.7096 136.509 13.7096C137.9 13.7096 139.036 14.0284 139.906 14.6663C140.781 15.3042 141.219 16.1729 141.219 17.2708C141.219 17.7306 141.105 18.1338 140.874 18.4866C140.643 18.8423 140.264 19.0171 139.733 19.0171C139.168 19.0171 138.731 18.8799 138.416 18.6031C138.106 18.3315 137.949 18.0217 137.949 17.6835C137.949 17.2708 138.008 16.8484 138.121 16.4117C138.24 15.9759 138.303 15.6571 138.322 15.4545C138.151 15.1733 137.895 14.981 137.552 14.887C137.212 14.7879 136.844 14.7413 136.449 14.7413C135.994 14.7413 135.551 14.8354 135.133 15.0231C134.715 15.2107 134.312 15.5584 133.918 16.0599C133.56 16.5203 133.275 17.1396 133.053 17.9183C132.833 18.6978 132.719 19.6264 132.719 20.7061C132.719 22.4139 133.117 23.8029 133.909 24.8822C134.699 25.9575 135.743 26.4973 137.025 26.4973C137.959 26.4973 138.74 26.2807 139.37 25.8495C139.995 25.4175 140.579 24.7741 141.116 23.911L142.039 24.4883C141.405 25.5721 140.57 26.4268 139.532 27.0602C138.495 27.6937 137.423 28.0079 136.322 28.0079ZM155.764 24.4605C155.169 25.5446 154.373 26.4034 153.375 27.0462C152.377 27.6888 151.227 28.0079 149.934 28.0079C148.789 28.0079 147.791 27.8153 146.931 27.4305C146.07 27.0462 145.362 26.5248 144.806 25.8634C144.252 25.2059 143.834 24.4319 143.558 23.5542C143.288 22.6722 143.15 21.743 143.15 20.7623C143.15 19.8847 143.297 19.0215 143.588 18.1714C143.883 17.3227 144.311 16.5623 144.88 15.8818C145.427 15.2338 146.104 14.708 146.916 14.3096C147.727 13.9103 148.636 13.7096 149.644 13.7096C150.682 13.7096 151.571 13.8639 152.308 14.1786C153.051 14.4877 153.651 14.915 154.107 15.4545C154.55 15.9713 154.879 16.5762 155.095 17.2708C155.312 17.9701 155.42 18.7258 155.42 19.5374V20.4481H146.016C146.016 21.3347 146.104 22.1423 146.281 22.8642C146.458 23.5918 146.739 24.2252 147.127 24.7796C147.501 25.3095 147.988 25.7273 148.591 26.0371C149.196 26.3418 149.919 26.4973 150.754 26.4973C151.611 26.4973 152.348 26.3042 152.967 25.9245C153.581 25.5446 154.182 24.8592 154.756 23.8684L155.764 24.4605ZM152.583 19.2931C152.583 18.7774 152.539 18.2284 152.446 17.6415C152.352 17.0551 152.21 16.5672 152.009 16.1729C151.787 15.7506 151.483 15.4078 151.1 15.1402C150.715 14.873 150.22 14.7413 149.615 14.7413C148.606 14.7413 147.771 15.1403 147.102 15.9427C146.433 16.7453 146.075 17.8621 146.016 19.2931H152.583Z" fill="#1F1917"/>
<path d="M50.1767 44.8402H46.1758V44.4374C46.2895 44.4286 46.451 44.4178 46.6651 44.4028C46.8783 44.3887 47.028 44.3659 47.1156 44.3349C47.2516 44.2869 47.3521 44.2192 47.4167 44.1342C47.4783 44.0491 47.5088 43.9305 47.5088 43.7799V37.9547C47.5088 37.8237 47.4873 37.7125 47.4402 37.6241C47.3952 37.535 47.2861 37.4613 47.1156 37.3999C46.9893 37.3553 46.8338 37.3127 46.6437 37.2723C46.4531 37.2336 46.2979 37.2102 46.1758 37.2022V36.8005H50.1767V37.2022C50.0461 37.2058 49.8925 37.2202 49.7123 37.2453C49.5333 37.2682 49.3771 37.3013 49.2426 37.3383C49.0849 37.3844 48.9778 37.4575 48.9248 37.5584C48.8692 37.661 48.8436 37.7752 48.8436 37.8988V43.7183C48.8436 43.8415 48.8728 43.952 48.9333 44.0491C48.9928 44.1457 49.0978 44.2228 49.2426 44.2787C49.3301 44.3103 49.4736 44.3423 49.6724 44.3779C49.869 44.4143 50.0371 44.4334 50.1767 44.4374V44.8402Z" fill="#1F1917"/>
<path d="M58.2515 44.8402H55.2299V44.4664C55.3259 44.4593 55.4325 44.4505 55.5457 44.4429C55.6613 44.4358 55.7552 44.4199 55.8318 44.3968C55.948 44.3638 56.035 44.3043 56.0906 44.2192C56.1485 44.1342 56.1766 44.0237 56.1766 43.8885V41.0139C56.1766 40.6176 56.0715 40.3124 55.867 40.0978C55.6592 39.8831 55.4075 39.7746 55.1129 39.7746C54.8901 39.7746 54.6869 39.8056 54.5039 39.8676C54.3223 39.9292 54.1576 40.0067 54.0165 40.0978C53.8804 40.1848 53.7689 40.2775 53.6884 40.3785C53.6072 40.4785 53.5466 40.5582 53.5112 40.6176V43.832C53.5112 43.9601 53.5382 44.0666 53.5982 44.1497C53.6557 44.2328 53.7433 44.2964 53.8608 44.3409C53.9486 44.3794 54.0421 44.4069 54.1447 44.426C54.2478 44.4449 54.3523 44.459 54.4614 44.4664V44.8402H51.4392V44.4664C51.5353 44.4593 51.6334 44.4505 51.736 44.4429C51.8385 44.4358 51.9261 44.4199 52.003 44.3968C52.1181 44.3638 52.2062 44.3043 52.2607 44.2192C52.3193 44.1342 52.3469 44.0237 52.3469 43.8885V40.4381C52.3469 40.3084 52.3169 40.1903 52.2547 40.0839C52.1952 39.9757 52.1096 39.8872 52.003 39.8196C51.9241 39.7746 51.83 39.7416 51.7209 39.7206C51.6119 39.6996 51.4943 39.6855 51.3711 39.678V39.3102L53.4231 39.1852L53.5112 39.2641V40.0512H53.5401C53.6407 39.9622 53.7669 39.8521 53.917 39.7266C54.0661 39.6004 54.2088 39.4964 54.3413 39.4168C54.4968 39.3263 54.6809 39.2502 54.8928 39.1907C55.1063 39.131 55.3455 39.1001 55.6122 39.1001C56.2036 39.1001 56.644 39.2682 56.9296 39.6004C57.2164 39.9352 57.3574 40.3806 57.3574 40.9348V43.8415C57.3574 43.9757 57.383 44.0816 57.4341 44.1628C57.4835 44.2443 57.5686 44.3084 57.6902 44.3524C57.7908 44.3914 57.8759 44.4159 57.949 44.4314C58.0215 44.4473 58.1241 44.459 58.2515 44.4664V44.8402Z" fill="#1F1917"/>
<path d="M66.0777 44.7378L63.9252 44.8628L63.8312 44.7833V44.2614L63.7816 44.2508C63.5639 44.4714 63.2972 44.6496 62.9765 44.7902C62.6582 44.9302 62.3295 44.9998 61.9919 44.9998C61.6415 44.9998 61.3022 44.9277 60.9751 44.7862C60.6488 44.6455 60.3626 44.4458 60.121 44.1887C59.8758 43.9276 59.6786 43.6148 59.536 43.2491C59.3925 42.8817 59.3203 42.4775 59.3203 42.0362C59.3203 41.6323 59.3969 41.2497 59.5505 40.8859C59.7067 40.524 59.9178 40.2074 60.1895 39.9341C60.4437 39.6805 60.7554 39.4794 61.1252 39.3272C61.4945 39.1761 61.8703 39.1011 62.2551 39.1011C62.5431 39.1011 62.8249 39.1341 63.103 39.1996C63.3803 39.2672 63.6195 39.3502 63.8181 39.4527V37.5095C63.8181 37.3503 63.79 37.2052 63.7306 37.0761C63.673 36.9441 63.5915 36.8454 63.487 36.7778C63.3698 36.7063 63.2137 36.6548 63.015 36.6213C62.8169 36.5902 62.6028 36.5678 62.374 36.5517V36.1999L64.8948 36.0704L64.9884 36.1554V43.6898C64.9884 43.8235 65.0159 43.9355 65.074 44.0286C65.1291 44.1196 65.2126 44.1987 65.3217 44.2623C65.4008 44.3094 65.5139 44.3359 65.6655 44.3474C65.8156 44.3579 65.9517 44.3669 66.0777 44.3708V44.7378ZM63.8181 43.7566V40.4887C63.7862 40.39 63.7306 40.285 63.6561 40.1715C63.5809 40.0573 63.487 39.9547 63.3738 39.8598C63.2541 39.7652 63.1112 39.6856 62.9484 39.6241C62.7864 39.5625 62.5963 39.5315 62.3806 39.5315C62.1288 39.5315 61.8978 39.589 61.6892 39.7071C61.4775 39.8227 61.2918 39.9918 61.1298 40.2105C60.973 40.4227 60.8514 40.6913 60.7619 41.0181C60.6724 41.3453 60.6274 41.7065 60.6274 42.1033C60.6274 42.4205 60.6618 42.7088 60.7278 42.9681C60.7939 43.2272 60.907 43.4674 61.0652 43.689C61.2127 43.9022 61.3984 44.0718 61.627 44.1998C61.8531 44.3274 62.1223 44.3934 62.4367 44.3934C62.7694 44.3934 63.0471 44.326 63.2653 44.1938C63.4854 44.0628 63.6689 43.9156 63.8181 43.7566Z" fill="#1F1917"/>
<path d="M73.5988 44.7379L71.5888 44.8628L71.4953 44.7834V44.0738H71.4588C71.3587 44.169 71.2457 44.271 71.119 44.3781C70.9959 44.4862 70.8503 44.5832 70.6883 44.6703C70.5001 44.7723 70.3185 44.85 70.1439 44.9019C69.9677 44.9555 69.7201 44.9809 69.4002 44.9809C68.8529 44.9809 68.4372 44.8208 68.1508 44.4981C67.8667 44.1744 67.7232 43.7051 67.7232 43.0896V40.4146C67.7232 40.2791 67.694 40.1656 67.6381 40.0729C67.5825 39.9799 67.4995 39.8989 67.3904 39.8307C67.3152 39.7868 67.2217 39.7538 67.1106 39.7328C66.9971 39.7112 66.8775 39.6976 66.7539 39.6897V39.3204L68.8108 39.1854L68.9049 39.2643V43.1457C68.9049 43.5505 69.005 43.8537 69.2057 44.0588C69.4068 44.2615 69.6459 44.364 69.9257 44.364C70.1538 44.364 70.3591 44.331 70.538 44.2669C70.7172 44.2039 70.8674 44.1284 70.9889 44.0413C71.102 43.9623 71.2002 43.8772 71.2861 43.7902C71.3717 43.701 71.4378 43.6175 71.4822 43.5425V40.3747C71.4822 40.2507 71.4552 40.1405 71.3947 40.044C71.3377 39.9469 71.2561 39.8658 71.1516 39.7982C71.077 39.7516 70.9659 39.7247 70.8162 39.7151C70.6687 39.7063 70.5026 39.6975 70.3185 39.6897V39.3204L72.5592 39.1854L72.6531 39.2643V43.701C72.6531 43.8302 72.6833 43.9388 72.7403 44.0299C72.7998 44.1204 72.8818 44.1979 72.9858 44.2614C73.061 44.3045 73.1505 44.331 73.253 44.3449C73.3577 44.3555 73.4728 44.3661 73.5988 44.37V44.7379Z" fill="#1F1917"/>
<path d="M78.7388 42.1036C78.909 42.2388 79.0421 42.3954 79.134 42.5735C79.2256 42.7516 79.2701 42.9683 79.2701 43.2255C79.2701 43.7432 79.0571 44.1651 78.6297 44.4943C78.2029 44.8232 77.6474 44.9871 76.9685 44.9871C76.6091 44.9871 76.278 44.9296 75.9767 44.8111C75.6736 44.695 75.4579 44.587 75.3273 44.4883L75.2042 44.8576H74.7344L74.6719 42.9138H75.1036C75.1377 43.0608 75.2081 43.2329 75.3169 43.4282C75.4238 43.6257 75.5564 43.8038 75.7101 43.9625C75.8727 44.1286 76.0688 44.2672 76.2955 44.3817C76.5242 44.4943 76.7784 44.5519 77.0621 44.5519C77.4638 44.5519 77.7706 44.4689 77.9888 44.3047C78.2048 44.14 78.3129 43.906 78.3129 43.5981C78.3129 43.4402 78.2795 43.3049 78.2114 43.1884C78.1402 43.0723 78.0403 42.9722 77.9076 42.8847C77.7685 42.7982 77.5999 42.7205 77.3992 42.6506C77.1987 42.5814 76.977 42.5119 76.7307 42.4444C76.5341 42.3894 76.3165 42.3182 76.0768 42.2252C75.8362 42.1327 75.6311 42.0245 75.4604 41.8985C75.2768 41.7673 75.1266 41.6048 75.0095 41.4136C74.892 41.2194 74.835 40.9938 74.835 40.7326C74.835 40.2758 75.0226 39.8876 75.3984 39.5699C75.774 39.2525 76.276 39.0945 76.9064 39.0945C77.1477 39.0945 77.3948 39.1235 77.6474 39.1796C77.8996 39.2375 78.1042 39.3056 78.2643 39.3847L78.4069 39.0885H78.8588L78.9524 40.8853H78.5206C78.4331 40.4849 78.243 40.1601 77.9528 39.9091C77.6645 39.6569 77.3097 39.5318 76.8935 39.5318C76.5512 39.5318 76.2824 39.6089 76.0858 39.7635C75.8891 39.9182 75.7906 40.1058 75.7906 40.3243C75.7906 40.4945 75.8231 40.636 75.8891 40.7502C75.9537 40.8618 76.0498 40.9589 76.1799 41.0378C76.3061 41.1133 76.4616 41.1845 76.6517 41.251C76.842 41.3165 77.0771 41.3917 77.3572 41.4747C77.6324 41.5543 77.8906 41.6473 78.1339 41.752C78.3799 41.8579 78.5806 41.976 78.7388 42.1036Z" fill="#1F1917"/>
<path d="M84.3207 44.5958C84.0485 44.698 83.7924 44.7831 83.5516 44.853C83.3075 44.9231 83.0132 44.9591 82.663 44.9591C82.1462 44.9591 81.7813 44.8401 81.5718 44.6034C81.36 44.3677 81.2555 44.035 81.2555 43.6036V39.8195H80.1406V39.2756H81.279V37.5368H82.4198V39.2756H84.1901V39.8195H82.4304V42.9427C82.4304 43.1764 82.4408 43.372 82.4599 43.5286C82.4768 43.6848 82.5223 43.8223 82.5945 43.9385C82.6606 44.049 82.761 44.1321 82.8937 44.1875C83.0277 44.2442 83.2074 44.2726 83.4321 44.2726C83.5366 44.2726 83.6898 44.2656 83.8909 44.2477C84.0941 44.2301 84.2367 44.2091 84.3207 44.1815V44.5958Z" fill="#1F1917"/>
<path d="M89.9721 39.9723C89.9721 40.1654 89.9191 40.3354 89.8166 40.4867C89.7114 40.6356 89.5518 40.7087 89.3336 40.7087C89.1005 40.7087 88.9213 40.6547 88.7999 40.5445C88.6758 40.436 88.6142 40.3144 88.6142 40.1829C88.6142 40.0997 88.6226 40.0237 88.6357 39.9568C88.6502 39.8872 88.6652 39.8196 88.6758 39.7515C88.4811 39.7515 88.2509 39.8226 87.9882 39.9661C87.7256 40.1108 87.5028 40.3144 87.3192 40.5791V43.832C87.3192 43.964 87.3473 44.0717 87.4033 44.1538C87.4608 44.2367 87.5483 44.3003 87.67 44.3409C87.7745 44.3794 87.9086 44.4069 88.0738 44.426C88.2384 44.4449 88.381 44.459 88.5005 44.4664V44.8402H85.2476V44.4664C85.3438 44.4593 85.4418 44.4505 85.5449 44.4429C85.6471 44.4358 85.735 44.4199 85.8116 44.3968C85.9272 44.3638 86.0143 44.3043 86.0704 44.2192C86.1279 44.1342 86.1558 44.0237 86.1558 43.8885V40.4381C86.1558 40.32 86.1253 40.2063 86.0644 40.0918C86.0038 39.9777 85.9182 39.8872 85.8116 39.8196C85.7325 39.7746 85.6384 39.7416 85.5294 39.7206C85.4213 39.6996 85.3038 39.6855 85.1797 39.678V39.3102L87.2322 39.1852L87.3192 39.2641V40.0512H87.3492C87.6078 39.7455 87.8961 39.5133 88.2143 39.3552C88.5307 39.1967 88.8214 39.1171 89.084 39.1171C89.3467 39.1171 89.5603 39.1945 89.725 39.3492C89.8886 39.5038 89.9721 39.713 89.9721 39.9723Z" fill="#1F1917"/>
<path d="M93.7994 44.8402H90.8158V44.4664C90.9118 44.4593 91.01 44.4505 91.1125 44.4429C91.2156 44.4358 91.3026 44.4199 91.3773 44.3968C91.4954 44.3638 91.5829 44.3043 91.6378 44.2192C91.694 44.1342 91.7234 44.0237 91.7234 43.8885V40.4381C91.7234 40.3165 91.6915 40.2063 91.6318 40.1054C91.5718 40.0048 91.4867 39.9216 91.3773 39.8537C91.2987 39.8076 91.1851 39.7686 91.034 39.7375C90.8839 39.7056 90.7478 39.6855 90.6211 39.678V39.3102L92.8002 39.1852L92.8874 39.2641V43.8205C92.8874 43.952 92.9158 44.0627 92.9703 44.1497C93.0265 44.2348 93.116 44.3003 93.2376 44.3409C93.3296 44.3758 93.4192 44.4028 93.5068 44.4238C93.5943 44.4429 93.6903 44.459 93.7994 44.4664V44.8402ZM93.0118 36.9821C93.0118 37.1962 92.9349 37.3844 92.7767 37.5445C92.6207 37.7051 92.4284 37.7867 92.1977 37.7867C91.9866 37.7867 91.8009 37.709 91.6444 37.5565C91.4889 37.4038 91.4098 37.2276 91.4098 37.0321C91.4098 36.8239 91.4889 36.6437 91.6444 36.4893C91.8009 36.3341 91.9866 36.2565 92.1977 36.2565C92.4369 36.2565 92.6316 36.3286 92.7827 36.4737C92.9349 36.6202 93.0118 36.7885 93.0118 36.9821Z" fill="#1F1917"/>
<path d="M100.347 43.5251C100.089 43.972 99.7433 44.3263 99.3099 44.5903C98.8757 44.8556 98.3758 44.9871 97.8148 44.9871C97.317 44.9871 96.8832 44.9081 96.5095 44.7496C96.1356 44.5903 95.8285 44.3762 95.5863 44.1032C95.3455 43.8324 95.1639 43.5131 95.0444 43.1514C94.9268 42.7886 94.8672 42.4054 94.8672 42.0016C94.8672 41.6394 94.9307 41.2835 95.0573 40.9333C95.1849 40.5831 95.3706 40.2703 95.6188 39.9902C95.8558 39.7229 96.1506 39.5063 96.503 39.3417C96.8556 39.1775 97.2508 39.0945 97.6888 39.0945C98.1391 39.0945 98.5258 39.1581 98.8466 39.2876C99.1684 39.4152 99.4291 39.5914 99.6276 39.814C99.8199 40.0262 99.9634 40.2758 100.057 40.5626C100.152 40.8502 100.198 41.1619 100.198 41.4967V41.8715H96.1122C96.1122 42.2372 96.1506 42.5694 96.2278 42.8677C96.3042 43.1674 96.4258 43.4282 96.5949 43.6568C96.7575 43.8755 96.9683 44.0475 97.2314 44.1746C97.4941 44.3007 97.8083 44.3642 98.1716 44.3642C98.543 44.3642 98.8632 44.2852 99.1318 44.1286C99.3994 43.972 99.6601 43.6892 99.9099 43.2815L100.347 43.5251ZM98.9652 41.3956C98.9652 41.1834 98.9461 40.9568 98.906 40.7151C98.8651 40.4735 98.8035 40.2719 98.7159 40.1091C98.6199 39.9356 98.4873 39.7944 98.3207 39.6839C98.1546 39.5738 97.9384 39.5197 97.6757 39.5197C97.238 39.5197 96.8742 39.6839 96.5845 40.0151C96.2943 40.3453 96.1376 40.8062 96.1122 41.3956H98.9652Z" fill="#1F1917"/>
<path d="M105.445 42.1036C105.617 42.2388 105.749 42.3954 105.841 42.5735C105.933 42.7516 105.978 42.9683 105.978 43.2255C105.978 43.7432 105.764 44.1651 105.337 44.4943C104.91 44.8232 104.355 44.9871 103.675 44.9871C103.317 44.9871 102.985 44.9296 102.684 44.8111C102.381 44.695 102.165 44.587 102.035 44.4883L101.911 44.8576H101.441L101.379 42.9138H101.811C101.844 43.0608 101.916 43.2329 102.024 43.4282C102.131 43.6257 102.263 43.8038 102.417 43.9625C102.58 44.1286 102.776 44.2672 103.002 44.3817C103.231 44.4943 103.485 44.5519 103.769 44.5519C104.171 44.5519 104.478 44.4689 104.696 44.3047C104.912 44.14 105.021 43.906 105.021 43.5981C105.021 43.4402 104.987 43.3049 104.918 43.1884C104.847 43.0723 104.747 42.9722 104.615 42.8847C104.476 42.7982 104.307 42.7205 104.106 42.6506C103.906 42.5814 103.683 42.5119 103.438 42.4444C103.242 42.3894 103.024 42.3182 102.785 42.2252C102.543 42.1327 102.338 42.0245 102.167 41.8985C101.983 41.7673 101.834 41.6048 101.717 41.4136C101.599 41.2194 101.541 40.9938 101.541 40.7326C101.541 40.2758 101.729 39.8876 102.105 39.5699C102.481 39.2525 102.983 39.0945 103.613 39.0945C103.854 39.0945 104.102 39.1235 104.355 39.1796C104.606 39.2375 104.811 39.3056 104.972 39.3847L105.115 39.0885H105.565L105.66 40.8853H105.228C105.14 40.4849 104.95 40.1601 104.659 39.9091C104.372 39.6569 104.016 39.5318 103.601 39.5318C103.258 39.5318 102.989 39.6089 102.793 39.7635C102.596 39.9182 102.498 40.1058 102.498 40.3243C102.498 40.4945 102.53 40.636 102.596 40.7502C102.661 40.8618 102.757 40.9589 102.887 41.0378C103.013 41.1133 103.169 41.1845 103.359 41.251C103.549 41.3165 103.784 41.3917 104.064 41.4747C104.34 41.5543 104.598 41.6473 104.841 41.752C105.087 41.8579 105.288 41.976 105.445 42.1036Z" fill="#1F1917"/>
<path d="M117.291 42.4495L117.103 44.8402H110.164V44.4374C110.264 44.4286 110.409 44.4159 110.599 44.3968C110.789 44.3792 110.922 44.3538 110.997 44.3238C111.121 44.2749 111.212 44.2037 111.268 44.1088C111.325 44.0136 111.353 43.8945 111.353 43.7469V37.9898C111.353 37.8617 111.33 37.7482 111.28 37.6495C111.234 37.5505 111.138 37.4714 110.997 37.4119C110.9 37.3669 110.766 37.3228 110.593 37.2778C110.42 37.2358 110.277 37.2102 110.164 37.2022V36.8005H113.912V37.2022C113.795 37.2058 113.645 37.2238 113.459 37.2587C113.273 37.2933 113.139 37.3228 113.056 37.3493C112.913 37.3943 112.817 37.4714 112.763 37.5819C112.712 37.6915 112.686 37.8077 112.686 37.9337V43.3331C112.686 43.5822 112.699 43.7758 112.727 43.9135C112.754 44.0512 112.817 44.1571 112.917 44.2348C113.013 44.3024 113.156 44.3463 113.346 44.3659C113.536 44.3873 113.801 44.3968 114.143 44.3968C114.299 44.3968 114.459 44.3954 114.626 44.388C114.792 44.3792 114.95 44.3645 115.102 44.3416C115.247 44.3185 115.382 44.2876 115.505 44.2486C115.628 44.208 115.719 44.1578 115.776 44.0973C115.947 43.9238 116.146 43.6606 116.375 43.3088C116.601 42.9551 116.759 42.6689 116.847 42.4502L117.291 42.4495Z" fill="#1F1917"/>
<path d="M121.042 44.8402H118.059V44.4664C118.154 44.4593 118.253 44.4505 118.355 44.4429C118.458 44.4358 118.545 44.4199 118.62 44.3968C118.737 44.3638 118.824 44.3043 118.88 44.2192C118.936 44.1342 118.965 44.0237 118.965 43.8885V40.4381C118.965 40.3165 118.934 40.2063 118.873 40.1054C118.815 40.0048 118.728 39.9216 118.62 39.8537C118.541 39.8076 118.428 39.7686 118.276 39.7375C118.126 39.7056 117.989 39.6855 117.863 39.678V39.3102L120.042 39.1852L120.13 39.2641V43.8205C120.13 43.952 120.157 44.0627 120.213 44.1497C120.268 44.2348 120.358 44.3003 120.48 44.3409C120.572 44.3758 120.661 44.4028 120.748 44.4238C120.836 44.4429 120.933 44.459 121.042 44.4664V44.8402ZM120.253 36.9821C120.253 37.1962 120.177 37.3844 120.018 37.5445C119.863 37.7051 119.671 37.7867 119.44 37.7867C119.228 37.7867 119.042 37.709 118.887 37.5565C118.731 37.4038 118.652 37.2276 118.652 37.0321C118.652 36.8239 118.731 36.6437 118.887 36.4893C119.042 36.3341 119.228 36.2565 119.44 36.2565C119.679 36.2565 119.873 36.3286 120.025 36.4737C120.177 36.6202 120.253 36.7885 120.253 36.9821Z" fill="#1F1917"/>
<path d="M132.677 44.8402H129.668V44.4664C129.764 44.4593 129.86 44.4505 129.958 44.4429C130.057 44.4358 130.144 44.4199 130.219 44.3968C130.337 44.3638 130.422 44.3043 130.478 44.2192C130.535 44.1342 130.563 44.0237 130.563 43.8885V41.0049C130.563 40.6102 130.465 40.3084 130.266 40.0937C130.067 39.8812 129.82 39.7746 129.525 39.7746C129.32 39.7746 129.128 39.8035 128.949 39.8597C128.769 39.9156 128.604 39.9958 128.455 40.0978C128.333 40.1809 128.233 40.2699 128.152 40.3659C128.068 40.4635 128.008 40.5426 127.965 40.6081V43.832C127.965 43.964 127.991 44.0717 128.04 44.1571C128.091 44.2422 128.177 44.3084 128.297 44.3524C128.393 44.3873 128.481 44.4129 128.557 44.4295C128.634 44.4454 128.735 44.459 128.861 44.4664V44.8402H125.913V44.4664C126.009 44.4593 126.104 44.4505 126.193 44.4429C126.283 44.4358 126.364 44.4199 126.439 44.3968C126.556 44.3638 126.641 44.3043 126.699 44.2192C126.755 44.1342 126.783 44.0237 126.783 43.8885V41.0049C126.783 40.6102 126.684 40.3084 126.485 40.0937C126.287 39.8812 126.041 39.7746 125.745 39.7746C125.539 39.7746 125.349 39.8035 125.17 39.8616C124.991 39.9216 124.824 40.0007 124.674 40.1032C124.553 40.1864 124.453 40.2789 124.369 40.3839C124.286 40.4886 124.222 40.5656 124.181 40.6176V43.8205C124.181 43.9485 124.209 44.0567 124.269 44.1437C124.326 44.2307 124.413 44.2964 124.532 44.3409C124.619 44.3794 124.709 44.4069 124.8 44.426C124.892 44.4449 124.995 44.459 125.106 44.4664V44.8402H122.11V44.4664C122.206 44.4593 122.304 44.4505 122.406 44.4429C122.508 44.4358 122.597 44.4199 122.673 44.3968C122.789 44.3638 122.876 44.3043 122.932 44.2192C122.989 44.1342 123.017 44.0237 123.017 43.8885V40.4144C123.017 40.2934 122.987 40.1848 122.925 40.0877C122.866 39.9937 122.78 39.9107 122.673 39.842C122.595 39.7981 122.496 39.761 122.379 39.7326C122.261 39.7035 122.141 39.6855 122.016 39.678V39.3102L124.081 39.1852L124.169 39.2641V40.0632H124.211C124.316 39.9682 124.444 39.8575 124.593 39.7285C124.743 39.6004 124.884 39.4964 125.012 39.4168C125.159 39.3263 125.341 39.2502 125.561 39.1907C125.779 39.131 126.015 39.1001 126.27 39.1001C126.671 39.1001 127.015 39.1986 127.303 39.3923C127.59 39.587 127.797 39.8215 127.923 40.0978C128.072 39.9642 128.205 39.8482 128.321 39.7495C128.433 39.6494 128.585 39.5428 128.773 39.4283C128.931 39.3298 129.119 39.2502 129.333 39.1907C129.548 39.131 129.788 39.1001 130.05 39.1001C130.572 39.1001 130.983 39.2542 131.289 39.5643C131.592 39.8755 131.746 40.3509 131.746 40.9934V43.832C131.746 43.964 131.77 44.0717 131.821 44.1571C131.87 44.2422 131.955 44.3084 132.077 44.3524C132.174 44.3873 132.267 44.4129 132.362 44.4295C132.456 44.4454 132.562 44.459 132.677 44.4664V44.8402Z" fill="#1F1917"/>
<path d="M136.701 44.8402H133.718V44.4664C133.814 44.4593 133.912 44.4505 134.015 44.4429C134.117 44.4358 134.205 44.4199 134.28 44.3968C134.397 44.3638 134.485 44.3043 134.54 44.2192C134.596 44.1342 134.626 44.0237 134.626 43.8885V40.4381C134.626 40.3165 134.594 40.2063 134.533 40.1054C134.474 40.0048 134.389 39.9216 134.28 39.8537C134.201 39.8076 134.087 39.7686 133.936 39.7375C133.786 39.7056 133.65 39.6855 133.523 39.678V39.3102L135.702 39.1852L135.79 39.2641V43.8205C135.79 43.952 135.818 44.0627 135.873 44.1497C135.929 44.2348 136.018 44.3003 136.14 44.3409C136.232 44.3758 136.321 44.4028 136.41 44.4238C136.497 44.4429 136.593 44.459 136.701 44.4664V44.8402ZM135.914 36.9821C135.914 37.1962 135.837 37.3844 135.678 37.5445C135.523 37.7051 135.331 37.7867 135.1 37.7867C134.888 37.7867 134.703 37.709 134.547 37.5565C134.391 37.4038 134.312 37.2276 134.312 37.0321C134.312 36.8239 134.391 36.6437 134.547 36.4893C134.703 36.3341 134.888 36.2565 135.1 36.2565C135.339 36.2565 135.533 36.3286 135.685 36.4737C135.837 36.6202 135.914 36.7885 135.914 36.9821Z" fill="#1F1917"/>
<path d="M141.582 44.5958C141.311 44.698 141.055 44.7831 140.813 44.853C140.57 44.9231 140.274 44.9591 139.925 44.9591C139.408 44.9591 139.043 44.8401 138.834 44.6034C138.622 44.3677 138.517 44.035 138.517 43.6036V39.8195H137.402V39.2756H138.541V37.5368H139.681V39.2756H141.452V39.8195H139.692V42.9427C139.692 43.1764 139.703 43.372 139.722 43.5286C139.739 43.6848 139.784 43.8223 139.857 43.9385C139.923 44.049 140.023 44.1321 140.155 44.1875C140.29 44.2442 140.469 44.2726 140.694 44.2726C140.798 44.2726 140.952 44.2656 141.153 44.2477C141.356 44.2301 141.499 44.2091 141.582 44.1815V44.5958Z" fill="#1F1917"/>
<path d="M147.984 43.5251C147.726 43.972 147.38 44.3263 146.946 44.5903C146.513 44.8556 146.013 44.9871 145.451 44.9871C144.953 44.9871 144.52 44.9081 144.147 44.7496C143.772 44.5903 143.465 44.3762 143.224 44.1032C142.982 43.8324 142.8 43.5131 142.681 43.1514C142.564 42.7886 142.504 42.4054 142.504 42.0016C142.504 41.6394 142.568 41.2835 142.694 40.9333C142.822 40.5831 143.008 40.2703 143.256 39.9902C143.493 39.7229 143.788 39.5063 144.14 39.3417C144.492 39.1775 144.887 39.0945 145.325 39.0945C145.776 39.0945 146.162 39.1581 146.483 39.2876C146.806 39.4152 147.066 39.5914 147.264 39.814C147.457 40.0262 147.599 40.2758 147.694 40.5626C147.788 40.8502 147.835 41.1619 147.835 41.4967V41.8715H143.748C143.748 42.2372 143.788 42.5694 143.864 42.8677C143.941 43.1674 144.063 43.4282 144.232 43.6568C144.394 43.8755 144.605 44.0475 144.868 44.1746C145.13 44.3007 145.445 44.3642 145.808 44.3642C146.179 44.3642 146.5 44.2852 146.769 44.1286C147.036 43.972 147.296 43.6892 147.547 43.2815L147.984 43.5251ZM146.602 41.3956C146.602 41.1834 146.583 40.9568 146.542 40.7151C146.502 40.4735 146.44 40.2719 146.352 40.1091C146.256 39.9356 146.124 39.7944 145.957 39.6839C145.791 39.5738 145.575 39.5197 145.312 39.5197C144.874 39.5197 144.511 39.6839 144.221 40.0151C143.931 40.3453 143.775 40.8062 143.748 41.3956H146.602Z" fill="#1F1917"/>
<path d="M155.765 44.7378L153.612 44.8628L153.518 44.7833V44.2614L153.47 44.2508C153.251 44.4714 152.985 44.6496 152.664 44.7902C152.346 44.9302 152.017 44.9998 151.68 44.9998C151.329 44.9998 150.99 44.9277 150.662 44.7862C150.336 44.6455 150.05 44.4458 149.809 44.1887C149.563 43.9276 149.366 43.6148 149.224 43.2491C149.08 42.8817 149.008 42.4775 149.008 42.0362C149.008 41.6323 149.084 41.2497 149.239 40.8859C149.394 40.524 149.606 40.2074 149.877 39.9341C150.131 39.6805 150.443 39.4794 150.812 39.3272C151.182 39.1761 151.558 39.1011 151.942 39.1011C152.231 39.1011 152.512 39.1341 152.79 39.1996C153.068 39.2672 153.307 39.3502 153.505 39.4527V37.5095C153.505 37.3503 153.478 37.2052 153.418 37.0761C153.361 36.9441 153.279 36.8454 153.175 36.7778C153.057 36.7063 152.902 36.6548 152.702 36.6213C152.504 36.5902 152.29 36.5678 152.062 36.5517V36.1999L154.582 36.0704L154.676 36.1554V43.6898C154.676 43.8235 154.703 43.9355 154.762 44.0286C154.817 44.1196 154.9 44.1987 155.009 44.2623C155.088 44.3094 155.201 44.3359 155.353 44.3474C155.503 44.3579 155.64 44.3669 155.765 44.3708V44.7378ZM153.505 43.7566V40.4887C153.474 40.39 153.418 40.285 153.343 40.1715C153.268 40.0573 153.175 39.9547 153.061 39.8598C152.942 39.7652 152.798 39.6856 152.636 39.6241C152.474 39.5625 152.284 39.5315 152.068 39.5315C151.816 39.5315 151.586 39.589 151.376 39.7071C151.164 39.8227 150.979 39.9918 150.817 40.2105C150.661 40.4227 150.539 40.6913 150.449 41.0181C150.36 41.3453 150.314 41.7065 150.314 42.1033C150.314 42.4205 150.349 42.7088 150.415 42.9681C150.481 43.2272 150.595 43.4674 150.752 43.689C150.9 43.9022 151.086 44.0718 151.314 44.1998C151.541 44.3274 151.81 44.3934 152.124 44.3934C152.456 44.3934 152.735 44.326 152.952 44.1938C153.172 44.0628 153.356 43.9156 153.505 43.7566Z" fill="#1F1917"/>
</svg>
